# xmcd
#
# Track frame offsets:
#	150
#	13875
#	26887
#	37725
#	56137
#	72037
#	91725
#	100612
#	114975
#	125250
#	138900
#	145012
#	160125
#	169837
#	183825
#	200850
#	215362
#	238237
#	261525
#	292050
#
# Disc length: 4192 seconds
#
# Revision: 0
# Processed by: cddbd v1.4b42PL1 Copyright (c) Steve Scherf et al.
# Submitted via: audiograbber 1.80.04
#
DISCID=23105e14
DTITLE=Various Artist - More Cajun Music And Zydeco
DYEAR=1900
DGENRE=
TTITLE0=Amede Ardoin and Dennis McGee - Madam Archen
TTITLE1=McCauley, Reed and Vidrine - Rosalie
TTITLE2=David Greely - La Malheureuse
TTITLE3=Hackberry Ramblers - Old Pipeliner
TTITLE4=Balfa Brothers - Two Step De L'anse Aux Pailles
TTITLE5=Balfa Toujours - Pop, Tu Me Parles Toujours
TTITLE6=Jimmy Peters and Ring Dance Singers (jure) - Grand Bois Zydeco
TTITLE7=Clifton Chenier - Josephine Par Se Ma Femme
TTITLE8=D.L. Menard - Je Peux Pas T'oublier
TTITLE9=John Delafose - Poor Man's Two Step
TTITLE10=Jesse Stafford - Je M'endors
TTITLE11=Beausoleil - Je M'endors
TTITLE12=Jo El Sonnier - Allons A Lafayette
TTITLE13=Zydeco Force - I'm On My Way
TTITLE14=Steve Riley and The Mamou Playboys - Old Home Waltz
TTITLE15=Boozoo Chavis - Johnny Billy Goat
TTITLE16=Zachary Richard - La Ballade De Howard Hebert
TTITLE17=Nathan Williams and The Zydeco Cha - Chas
TTITLE18=Wayne Toups - Zydeco Est Pas Sale
TTITLE19=Bois - sec and Canray
EXTD=
EXTT0=
EXTT1=
EXTT2=
EXTT3=
EXTT4=
EXTT5=
EXTT6=
EXTT7=
EXTT8=
EXTT9=
EXTT10=
EXTT11=
EXTT12=
EXTT13=
EXTT14=
EXTT15=
EXTT16=
EXTT17=
EXTT18=
EXTT19=
PLAYORDER=
